# Blender v2.76 (sub 0) OBJ File: ''
# www.blender.org
mtllib tesselatedSphere.mtl
o Cube_Cube.001
v -0.195090 0.980785 0.000000
v -0.382683 0.923880 0.000000
v -0.555570 0.831470 0.000000
v -0.707107 0.707107 0.000000
v -0.831470 0.555570 0.000000
v -0.923880 0.382683 0.000000
v -0.980785 0.195090 0.000000
v -1.000000 0.000000 0.000000
v -0.980785 -0.195090 0.000000
v -0.923880 -0.382683 0.000000
v -0.831470 -0.555570 0.000000
v -0.707107 -0.707107 0.000000
v -0.555570 -0.831470 0.000000
v -0.382683 -0.923880 0.000000
v -0.195090 -0.980785 0.000000
v -0.180240 0.980785 -0.074658
v -0.353553 0.923880 -0.146447
v -0.513280 0.831470 -0.212608
v -0.653281 0.707107 -0.270598
v -0.768178 0.555570 -0.318190
v -0.853553 0.382683 -0.353554
v -0.906127 0.195090 -0.375330
v -0.923880 0.000000 -0.382684
v -0.906127 -0.195090 -0.375330
v -0.853553 -0.382683 -0.353554
v -0.768178 -0.555570 -0.318190
v -0.653281 -0.707107 -0.270598
v -0.513280 -0.831470 -0.212608
v -0.353553 -0.923880 -0.146447
v -0.180240 -0.980785 -0.074658
v -0.137950 0.980785 -0.137950
v -0.270598 0.923880 -0.270598
v -0.392847 0.831470 -0.392848
v -0.500000 0.707107 -0.500000
v -0.587938 0.555570 -0.587938
v -0.653281 0.382683 -0.653282
v -0.693520 0.195090 -0.693520
v -0.707107 0.000000 -0.707107
v -0.693520 -0.195090 -0.693520
v -0.653281 -0.382683 -0.653282
v -0.587938 -0.555570 -0.587938
v -0.500000 -0.707107 -0.500000
v -0.392847 -0.831470 -0.392848
v -0.270598 -0.923880 -0.270598
v -0.137949 -0.980785 -0.137950
v -0.074658 0.980785 -0.180240
v -0.146446 0.923880 -0.353554
v -0.212607 0.831470 -0.513280
v -0.270598 0.707107 -0.653282
v -0.318189 0.555570 -0.768178
v -0.353553 0.382683 -0.853554
v -0.375330 0.195090 -0.906128
v -0.382683 0.000000 -0.923880
v -0.375330 -0.195090 -0.906128
v -0.353553 -0.382683 -0.853554
v -0.318189 -0.555570 -0.768178
v -0.270598 -0.707107 -0.653282
v -0.212607 -0.831470 -0.513280
v -0.146446 -0.923880 -0.353554
v -0.074658 -0.980785 -0.180240
v 0.000000 0.980785 -0.195091
v 0.000000 0.923880 -0.382684
v 0.000000 0.831470 -0.555571
v 0.000000 0.707107 -0.707107
v 0.000000 0.555570 -0.831470
v 0.000000 0.382683 -0.923880
v 0.000000 0.195090 -0.980786
v 0.000000 0.000000 -1.000000
v 0.000000 -0.195090 -0.980786
v 0.000000 -0.382683 -0.923880
v 0.000000 -0.555570 -0.831470
v 0.000000 -0.707107 -0.707107
v 0.000000 -0.831470 -0.555570
v 0.000000 -0.923880 -0.382684
v 0.000000 -0.980785 -0.195090
v 0.074658 0.980785 -0.180240
v 0.146447 0.923880 -0.353554
v 0.212608 0.831470 -0.513280
v 0.270599 0.707107 -0.653282
v 0.318190 0.555570 -0.768178
v 0.353554 0.382683 -0.853554
v 0.375331 0.195090 -0.906128
v 0.382684 0.000000 -0.923880
v 0.375331 -0.195090 -0.906128
v 0.353554 -0.382683 -0.853554
v 0.318190 -0.555570 -0.768178
v 0.270599 -0.707107 -0.653282
v 0.212608 -0.831470 -0.513280
v 0.146447 -0.923880 -0.353553
v 0.074658 -0.980785 -0.180240
v 0.137950 0.980785 -0.137950
v 0.270599 0.923880 -0.270598
v 0.392848 0.831470 -0.392848
v 0.500000 0.707107 -0.500000
v 0.587938 0.555570 -0.587938
v 0.653282 0.382683 -0.653282
v 0.693521 0.195090 -0.693520
v 0.707107 0.000000 -0.707107
v 0.693521 -0.195090 -0.693520
v 0.653282 -0.382683 -0.653282
v 0.587938 -0.555570 -0.587938
v 0.500000 -0.707107 -0.500000
v 0.392848 -0.831470 -0.392848
v 0.270599 -0.923880 -0.270598
v 0.137950 -0.980785 -0.137950
v 0.180241 0.980785 -0.074658
v 0.353554 0.923880 -0.146447
v 0.513281 0.831470 -0.212608
v 0.653282 0.707107 -0.270598
v 0.768178 0.555570 -0.318190
v 0.853554 0.382683 -0.353553
v 0.906128 0.195090 -0.375330
v 0.923880 0.000000 -0.382683
v 0.906128 -0.195090 -0.375330
v 0.853554 -0.382683 -0.353553
v 0.768178 -0.555570 -0.318190
v 0.653282 -0.707107 -0.270598
v 0.513281 -0.831470 -0.212607
v 0.353554 -0.923880 -0.146447
v 0.180240 -0.980785 -0.074658
v 0.195091 0.980785 0.000000
v 0.382684 0.923880 0.000000
v 0.555571 0.831470 0.000000
v 0.707107 0.707107 0.000000
v 0.831470 0.555570 0.000000
v 0.923880 0.382683 0.000000
v 0.980786 0.195090 0.000000
v 1.000000 0.000000 0.000000
v 0.980786 -0.195090 0.000000
v 0.923880 -0.382683 0.000000
v 0.831470 -0.555570 0.000000
v 0.707107 -0.707107 0.000000
v 0.555571 -0.831470 0.000000
v 0.382684 -0.923880 0.000000
v 0.195091 -0.980785 0.000000
v 0.180241 0.980785 0.074658
v 0.353554 0.923880 0.146447
v 0.513280 0.831470 0.212608
v 0.653282 0.707107 0.270598
v 0.768178 0.555570 0.318190
v 0.853554 0.382683 0.353554
v 0.906128 0.195090 0.375330
v 0.923880 0.000000 0.382684
v 0.906128 -0.195090 0.375330
v 0.853554 -0.382683 0.353554
v 0.768178 -0.555570 0.318190
v 0.653282 -0.707107 0.270598
v 0.513280 -0.831470 0.212608
v 0.353554 -0.923880 0.146447
v 0.180240 -0.980785 0.074658
v 0.137950 0.980785 0.137950
v 0.270598 0.923880 0.270598
v 0.392848 0.831470 0.392848
v 0.500000 0.707107 0.500000
v 0.587938 0.555570 0.587938
v 0.653282 0.382683 0.653282
v 0.693520 0.195090 0.693520
v 0.707107 0.000000 0.707107
v 0.693520 -0.195090 0.693520
v 0.653282 -0.382683 0.653282
v 0.587938 -0.555570 0.587938
v 0.500000 -0.707107 0.500000
v 0.392848 -0.831470 0.392848
v 0.270598 -0.923880 0.270598
v 0.137950 -0.980785 0.137950
v 0.074658 0.980785 0.180240
v 0.146447 0.923880 0.353554
v 0.212608 0.831470 0.513280
v 0.270598 0.707107 0.653282
v 0.318190 0.555570 0.768178
v 0.353553 0.382683 0.853554
v 0.375330 0.195090 0.906127
v 0.382684 0.000000 0.923880
v 0.375330 -0.195090 0.906127
v 0.353553 -0.382683 0.853554
v 0.318190 -0.555570 0.768178
v 0.270598 -0.707107 0.653282
v 0.212608 -0.831470 0.513280
v 0.146447 -0.923880 0.353554
v 0.074658 -0.980785 0.180240
v 0.000000 0.980785 0.195091
v 0.000000 0.923880 0.382684
v 0.000000 0.831470 0.555570
v 0.000000 0.707107 0.707107
v -0.000000 0.555570 0.831470
v -0.000000 0.382683 0.923880
v 0.000000 0.195090 0.980785
v -0.000000 0.000000 1.000000
v 0.000000 -0.195090 0.980785
v -0.000000 -0.382683 0.923880
v -0.000000 -0.555570 0.831470
v 0.000000 -0.707107 0.707107
v 0.000000 -0.831470 0.555570
v 0.000000 -0.923880 0.382684
v 0.000000 -0.980785 0.195090
v -0.074658 0.980785 0.180240
v -0.146446 0.923880 0.353554
v -0.212608 0.831470 0.513280
v -0.270598 0.707107 0.653281
v -0.318190 0.555570 0.768178
v -0.353553 0.382683 0.853553
v -0.375330 0.195090 0.906127
v -0.382684 0.000000 0.923880
v -0.375330 -0.195090 0.906127
v -0.353553 -0.382683 0.853553
v -0.318190 -0.555570 0.768178
v -0.270598 -0.707107 0.653281
v -0.212608 -0.831470 0.513280
v -0.146447 -0.923880 0.353553
v -0.074658 -0.980785 0.180240
v 0.000000 1.000000 0.000000
v -0.137950 0.980785 0.137950
v -0.270598 0.923880 0.270598
v -0.392847 0.831470 0.392847
v -0.500000 0.707107 0.500000
v -0.587938 0.555570 0.587937
v -0.653282 0.382683 0.653281
v -0.693520 0.195090 0.693520
v -0.707107 0.000000 0.707107
v -0.693520 -0.195090 0.693520
v -0.653282 -0.382683 0.653281
v -0.587938 -0.555570 0.587937
v -0.500000 -0.707107 0.500000
v -0.392847 -0.831470 0.392847
v -0.270598 -0.923880 0.270598
v -0.137949 -0.980785 0.137950
v 0.000000 -1.000000 0.000000
v -0.180240 0.980785 0.074658
v -0.353553 0.923880 0.146447
v -0.513280 0.831470 0.212607
v -0.653281 0.707107 0.270598
v -0.768178 0.555570 0.318189
v -0.853553 0.382683 0.353553
v -0.906127 0.195090 0.375330
v -0.923880 0.000000 0.382683
v -0.906127 -0.195090 0.375330
v -0.853553 -0.382683 0.353553
v -0.768178 -0.555570 0.318189
v -0.653281 -0.707107 0.270598
v -0.513280 -0.831470 0.212607
v -0.353553 -0.923880 0.146446
v -0.180240 -0.980785 0.074658
vn -0.868700 -0.464300 -0.172800
vn -0.629400 0.766900 -0.125200
vn -0.764000 -0.627000 -0.152000
vn -0.764000 0.627000 -0.152000
vn -0.629400 -0.766900 -0.125200
vn -0.868700 0.464300 -0.172800
vn -0.469300 -0.878100 -0.093400
vn -0.940100 0.285200 -0.187000
vn -0.289800 -0.955300 -0.057600
vn -0.976200 0.096200 -0.194200
vn -0.976200 -0.096200 -0.194200
vn -0.289800 0.955300 -0.057600
vn -0.940100 -0.285200 -0.187000
vn -0.469300 0.878100 -0.093400
vn -0.245700 0.955300 -0.164200
vn -0.796900 -0.285200 -0.532500
vn -0.397900 0.878100 -0.265900
vn -0.736400 -0.464300 -0.492100
vn -0.533600 0.766900 -0.356500
vn -0.647700 -0.627000 -0.432800
vn -0.647700 0.627000 -0.432800
vn -0.533600 -0.766900 -0.356500
vn -0.736400 0.464300 -0.492100
vn -0.397900 -0.878100 -0.265900
vn -0.796900 0.285200 -0.532500
vn -0.245700 -0.955300 -0.164200
vn -0.827600 0.096200 -0.553000
vn -0.827600 -0.096200 -0.553000
vn -0.492100 0.464300 -0.736400
vn -0.265900 -0.878100 -0.397900
vn -0.532500 0.285200 -0.796900
vn -0.164200 -0.955300 -0.245700
vn -0.553000 0.096200 -0.827600
vn -0.553000 -0.096200 -0.827600
vn -0.164200 0.955300 -0.245700
vn -0.532500 -0.285200 -0.796900
vn -0.265900 0.878100 -0.397900
vn -0.492100 -0.464300 -0.736400
vn -0.356500 0.766900 -0.533600
vn -0.432800 -0.627000 -0.647700
vn -0.432800 0.627000 -0.647700
vn -0.356500 -0.766900 -0.533600
vn -0.187000 -0.285200 -0.940100
vn -0.093400 0.878100 -0.469300
vn -0.172800 -0.464300 -0.868700
vn -0.125200 0.766900 -0.629400
vn -0.152000 -0.627000 -0.764000
vn -0.152000 0.627000 -0.764000
vn -0.125200 -0.766900 -0.629400
vn -0.172800 0.464300 -0.868700
vn -0.093400 -0.878100 -0.469300
vn -0.187000 0.285200 -0.940100
vn -0.057600 -0.955300 -0.289800
vn -0.194200 0.096200 -0.976200
vn -0.194200 -0.096200 -0.976200
vn -0.057600 0.955300 -0.289800
vn 0.093400 -0.878100 -0.469300
vn 0.187000 0.285200 -0.940100
vn 0.057600 -0.955300 -0.289800
vn 0.194200 0.096200 -0.976200
vn 0.194200 -0.096200 -0.976200
vn 0.057600 0.955300 -0.289800
vn 0.187000 -0.285200 -0.940100
vn 0.093400 0.878100 -0.469300
vn 0.172800 -0.464300 -0.868700
vn 0.125200 0.766900 -0.629400
vn 0.152000 -0.627000 -0.764000
vn 0.152000 0.627000 -0.764000
vn 0.125200 -0.766900 -0.629400
vn 0.172800 0.464300 -0.868700
vn 0.492100 -0.464300 -0.736400
vn 0.356500 0.766900 -0.533600
vn 0.432800 -0.627000 -0.647700
vn 0.432800 0.627000 -0.647700
vn 0.356500 -0.766900 -0.533600
vn 0.492100 0.464300 -0.736400
vn 0.265900 -0.878100 -0.397900
vn 0.532500 0.285200 -0.796900
vn 0.164200 -0.955300 -0.245700
vn 0.553000 0.096200 -0.827600
vn 0.553000 -0.096200 -0.827600
vn 0.164200 0.955300 -0.245700
vn 0.532500 -0.285200 -0.796900
vn 0.265900 0.878100 -0.397900
vn 0.245700 -0.955300 -0.164200
vn 0.827600 0.096200 -0.553000
vn 0.827600 -0.096200 -0.553000
vn 0.245700 0.955300 -0.164200
vn 0.796900 -0.285200 -0.532500
vn 0.397900 0.878100 -0.265900
vn 0.736400 -0.464300 -0.492100
vn 0.533600 0.766900 -0.356500
vn 0.647700 -0.627000 -0.432800
vn 0.647700 0.627000 -0.432800
vn 0.533600 -0.766900 -0.356500
vn 0.736400 0.464300 -0.492100
vn 0.397900 -0.878100 -0.265900
vn 0.796900 0.285200 -0.532500
vn 0.629400 0.766900 -0.125200
vn 0.764000 -0.627000 -0.152000
vn 0.764000 0.627000 -0.152000
vn 0.629400 -0.766900 -0.125200
vn 0.868700 0.464300 -0.172800
vn 0.469300 -0.878100 -0.093400
vn 0.940100 0.285200 -0.187000
vn 0.289800 -0.955300 -0.057600
vn 0.976200 0.096200 -0.194200
vn 0.976200 -0.096200 -0.194200
vn 0.289800 0.955300 -0.057600
vn 0.940100 -0.285200 -0.187000
vn 0.469300 0.878100 -0.093400
vn 0.868700 -0.464300 -0.172800
vn 0.976200 0.096200 0.194200
vn 0.976200 -0.096200 0.194200
vn 0.289800 0.955300 0.057600
vn 0.940100 -0.285200 0.187000
vn 0.469300 0.878100 0.093400
vn 0.868700 -0.464300 0.172800
vn 0.629400 0.766900 0.125200
vn 0.764000 -0.627000 0.152000
vn 0.764000 0.627000 0.152000
vn 0.629400 -0.766900 0.125200
vn 0.868700 0.464300 0.172800
vn 0.469300 -0.878100 0.093400
vn 0.940100 0.285200 0.187000
vn 0.289800 -0.955300 0.057600
vn 0.647700 -0.627000 0.432800
vn 0.647700 0.627000 0.432800
vn 0.533600 -0.766900 0.356500
vn 0.736400 0.464300 0.492100
vn 0.397900 -0.878100 0.265900
vn 0.796900 0.285200 0.532500
vn 0.245700 -0.955300 0.164200
vn 0.827600 0.096200 0.553000
vn 0.827600 -0.096200 0.553000
vn 0.245700 0.955300 0.164200
vn 0.796900 -0.285200 0.532500
vn 0.397900 0.878100 0.265900
vn 0.736400 -0.464300 0.492100
vn 0.533600 0.766900 0.356500
vn 0.553000 -0.096200 0.827600
vn 0.164200 0.955300 0.245700
vn 0.532500 -0.285200 0.796900
vn 0.265900 0.878100 0.397900
vn 0.492100 -0.464300 0.736400
vn 0.356500 0.766900 0.533600
vn 0.432800 -0.627000 0.647700
vn 0.432800 0.627000 0.647700
vn 0.356500 -0.766900 0.533600
vn 0.492100 0.464300 0.736400
vn 0.265900 -0.878100 0.397900
vn 0.532500 0.285200 0.796900
vn 0.164200 -0.955300 0.245700
vn 0.553000 0.096200 0.827600
vn 0.152000 0.627000 0.764000
vn 0.125200 -0.766900 0.629400
vn 0.172800 0.464300 0.868700
vn 0.093400 -0.878100 0.469300
vn 0.187000 0.285200 0.940100
vn 0.057600 -0.955300 0.289800
vn 0.194200 0.096200 0.976200
vn 0.194200 -0.096200 0.976200
vn 0.057600 0.955300 0.289800
vn 0.187000 -0.285200 0.940100
vn 0.093400 0.878100 0.469300
vn 0.172800 -0.464300 0.868700
vn 0.125200 0.766900 0.629400
vn 0.152000 -0.627000 0.764000
vn -0.194200 -0.096200 0.976200
vn -0.057600 0.955300 0.289800
vn -0.187000 -0.285200 0.940100
vn -0.093400 0.878100 0.469300
vn -0.172800 -0.464300 0.868700
vn -0.125200 0.766900 0.629400
vn -0.152000 -0.627000 0.764000
vn -0.152000 0.627000 0.764000
vn -0.125200 -0.766900 0.629400
vn -0.172800 0.464300 0.868700
vn -0.093400 -0.878100 0.469300
vn -0.187000 0.285200 0.940100
vn -0.057600 -0.955300 0.289800
vn -0.194200 0.096200 0.976200
vn -0.356500 -0.766900 0.533600
vn -0.492100 0.464300 0.736400
vn -0.265900 -0.878100 0.397900
vn -0.532500 0.285200 0.796900
vn -0.164200 -0.955300 0.245700
vn -0.553000 0.096200 0.827600
vn -0.553000 -0.096200 0.827600
vn -0.164200 0.955300 0.245700
vn -0.532500 -0.285200 0.796900
vn -0.265900 0.878100 0.397900
vn -0.492100 -0.464300 0.736400
vn -0.356500 0.766900 0.533600
vn -0.432800 -0.627000 0.647700
vn -0.432800 0.627000 0.647700
vn -0.796900 -0.285200 0.532500
vn -0.397900 0.878100 0.265900
vn -0.736400 -0.464300 0.492100
vn -0.533600 0.766900 0.356500
vn -0.647700 -0.627000 0.432800
vn -0.647700 0.627000 0.432800
vn -0.533600 -0.766900 0.356500
vn -0.736400 0.464300 0.492100
vn -0.397900 -0.878100 0.265900
vn -0.796900 0.285200 0.532500
vn -0.245700 -0.955300 0.164200
vn -0.827600 0.096200 0.553000
vn -0.827600 -0.096200 0.553000
vn -0.245700 0.955300 0.164200
vn -0.098000 0.995000 -0.019500
vn -0.098000 -0.995000 -0.019500
vn -0.083100 0.995000 -0.055500
vn -0.083100 -0.995000 -0.055500
vn -0.055500 0.995000 -0.083100
vn -0.055500 -0.995000 -0.083100
vn -0.019500 0.995000 -0.098000
vn -0.019500 -0.995000 -0.098000
vn 0.019500 0.995000 -0.098000
vn 0.019500 -0.995000 -0.098000
vn 0.055500 0.995000 -0.083100
vn 0.055500 -0.995000 -0.083100
vn 0.083100 0.995000 -0.055500
vn 0.083100 -0.995000 -0.055500
vn 0.098000 0.995000 -0.019500
vn 0.098000 -0.995000 -0.019500
vn 0.098000 0.995000 0.019500
vn 0.098000 -0.995000 0.019500
vn 0.083100 0.995000 0.055500
vn 0.083100 -0.995000 0.055500
vn 0.055500 0.995000 0.083100
vn 0.055500 -0.995000 0.083100
vn 0.019500 0.995000 0.098000
vn 0.019500 -0.995000 0.098000
vn -0.019500 0.995000 0.098000
vn -0.019500 -0.995000 0.098000
vn -0.055500 0.995000 0.083100
vn -0.055500 -0.995000 0.083100
vn -0.083100 0.995000 0.055500
vn -0.083100 -0.995000 0.055500
vn -0.469300 -0.878100 0.093400
vn -0.940100 0.285200 0.187000
vn -0.289800 -0.955300 0.057600
vn -0.976200 0.096200 0.194200
vn -0.098000 0.995000 0.019500
vn -0.098000 -0.995000 0.019500
vn -0.976200 -0.096200 0.194200
vn -0.289800 0.955300 0.057600
vn -0.940100 -0.285200 0.187000
vn -0.469300 0.878100 0.093400
vn -0.868700 -0.464300 0.172800
vn -0.629400 0.766900 0.125200
vn -0.764000 -0.627000 0.152000
vn -0.764000 0.627000 0.152000
vn -0.629400 -0.766900 0.125200
vn -0.868700 0.464300 0.172800
usemtl None
s off
f 11//1 10//1 25//1 26//1
f 4//2 3//2 18//2 19//2
f 12//3 11//3 26//3 27//3
f 5//4 4//4 19//4 20//4
f 13//5 12//5 27//5 28//5
f 6//6 5//6 20//6 21//6
f 14//7 13//7 28//7 29//7
f 7//8 6//8 21//8 22//8
f 15//9 14//9 29//9 30//9
f 8//10 7//10 22//10 23//10
f 9//11 8//11 23//11 24//11
f 2//12 1//12 16//12 17//12
f 10//13 9//13 24//13 25//13
f 3//14 2//14 17//14 18//14
f 17//15 16//15 31//15 32//15
f 25//16 24//16 39//16 40//16
f 18//17 17//17 32//17 33//17
f 26//18 25//18 40//18 41//18
f 19//19 18//19 33//19 34//19
f 27//20 26//20 41//20 42//20
f 20//21 19//21 34//21 35//21
f 28//22 27//22 42//22 43//22
f 21//23 20//23 35//23 36//23
f 29//24 28//24 43//24 44//24
f 22//25 21//25 36//25 37//25
f 30//26 29//26 44//26 45//26
f 23//27 22//27 37//27 38//27
f 24//28 23//28 38//28 39//28
f 36//29 35//29 50//29 51//29
f 44//30 43//30 58//30 59//30
f 37//31 36//31 51//31 52//31
f 45//32 44//32 59//32 60//32
f 38//33 37//33 52//33 53//33
f 39//34 38//34 53//34 54//34
f 32//35 31//35 46//35 47//35
f 40//36 39//36 54//36 55//36
f 33//37 32//37 47//37 48//37
f 41//38 40//38 55//38 56//38
f 34//39 33//39 48//39 49//39
f 42//40 41//40 56//40 57//40
f 35//41 34//41 49//41 50//41
f 43//42 42//42 57//42 58//42
f 55//43 54//43 69//43 70//43
f 48//44 47//44 62//44 63//44
f 56//45 55//45 70//45 71//45
f 49//46 48//46 63//46 64//46
f 57//47 56//47 71//47 72//47
f 50//48 49//48 64//48 65//48
f 58//49 57//49 72//49 73//49
f 51//50 50//50 65//50 66//50
f 59//51 58//51 73//51 74//51
f 52//52 51//52 66//52 67//52
f 60//53 59//53 74//53 75//53
f 53//54 52//54 67//54 68//54
f 54//55 53//55 68//55 69//55
f 47//56 46//56 61//56 62//56
f 74//57 73//57 88//57 89//57
f 67//58 66//58 81//58 82//58
f 75//59 74//59 89//59 90//59
f 68//60 67//60 82//60 83//60
f 69//61 68//61 83//61 84//61
f 62//62 61//62 76//62 77//62
f 70//63 69//63 84//63 85//63
f 63//64 62//64 77//64 78//64
f 71//65 70//65 85//65 86//65
f 64//66 63//66 78//66 79//66
f 72//67 71//67 86//67 87//67
f 65//68 64//68 79//68 80//68
f 73//69 72//69 87//69 88//69
f 66//70 65//70 80//70 81//70
f 86//71 85//71 100//71 101//71
f 79//72 78//72 93//72 94//72
f 87//73 86//73 101//73 102//73
f 80//74 79//74 94//74 95//74
f 88//75 87//75 102//75 103//75
f 81//76 80//76 95//76 96//76
f 89//77 88//77 103//77 104//77
f 82//78 81//78 96//78 97//78
f 90//79 89//79 104//79 105//79
f 83//80 82//80 97//80 98//80
f 84//81 83//81 98//81 99//81
f 77//82 76//82 91//82 92//82
f 85//83 84//83 99//83 100//83
f 78//84 77//84 92//84 93//84
f 105//85 104//85 119//85 120//85
f 98//86 97//86 112//86 113//86
f 99//87 98//87 113//87 114//87
f 92//88 91//88 106//88 107//88
f 100//89 99//89 114//89 115//89
f 93//90 92//90 107//90 108//90
f 101//91 100//91 115//91 116//91
f 94//92 93//92 108//92 109//92
f 102//93 101//93 116//93 117//93
f 95//94 94//94 109//94 110//94
f 103//95 102//95 117//95 118//95
f 96//96 95//96 110//96 111//96
f 104//97 103//97 118//97 119//97
f 97//98 96//98 111//98 112//98
f 109//99 108//99 123//99 124//99
f 117//100 116//100 131//100 132//100
f 110//101 109//101 124//101 125//101
f 118//102 117//102 132//102 133//102
f 111//103 110//103 125//103 126//103
f 119//104 118//104 133//104 134//104
f 112//105 111//105 126//105 127//105
f 120//106 119//106 134//106 135//106
f 113//107 112//107 127//107 128//107
f 114//108 113//108 128//108 129//108
f 107//109 106//109 121//109 122//109
f 115//110 114//110 129//110 130//110
f 108//111 107//111 122//111 123//111
f 116//112 115//112 130//112 131//112
f 128//113 127//113 142//113 143//113
f 129//114 128//114 143//114 144//114
f 122//115 121//115 136//115 137//115
f 130//116 129//116 144//116 145//116
f 123//117 122//117 137//117 138//117
f 131//118 130//118 145//118 146//118
f 124//119 123//119 138//119 139//119
f 132//120 131//120 146//120 147//120
f 125//121 124//121 139//121 140//121
f 133//122 132//122 147//122 148//122
f 126//123 125//123 140//123 141//123
f 134//124 133//124 148//124 149//124
f 127//125 126//125 141//125 142//125
f 135//126 134//126 149//126 150//126
f 147//127 146//127 161//127 162//127
f 140//128 139//128 154//128 155//128
f 148//129 147//129 162//129 163//129
f 141//130 140//130 155//130 156//130
f 149//131 148//131 163//131 164//131
f 142//132 141//132 156//132 157//132
f 150//133 149//133 164//133 165//133
f 143//134 142//134 157//134 158//134
f 144//135 143//135 158//135 159//135
f 137//136 136//136 151//136 152//136
f 145//137 144//137 159//137 160//137
f 138//138 137//138 152//138 153//138
f 146//139 145//139 160//139 161//139
f 139//140 138//140 153//140 154//140
f 159//141 158//141 173//141 174//141
f 152//142 151//142 166//142 167//142
f 160//143 159//143 174//143 175//143
f 153//144 152//144 167//144 168//144
f 161//145 160//145 175//145 176//145
f 154//146 153//146 168//146 169//146
f 162//147 161//147 176//147 177//147
f 155//148 154//148 169//148 170//148
f 163//149 162//149 177//149 178//149
f 156//150 155//150 170//150 171//150
f 164//151 163//151 178//151 179//151
f 157//152 156//152 171//152 172//152
f 165//153 164//153 179//153 180//153
f 158//154 157//154 172//154 173//154
f 170//155 169//155 184//155 185//155
f 178//156 177//156 192//156 193//156
f 171//157 170//157 185//157 186//157
f 179//158 178//158 193//158 194//158
f 172//159 171//159 186//159 187//159
f 180//160 179//160 194//160 195//160
f 173//161 172//161 187//161 188//161
f 174//162 173//162 188//162 189//162
f 167//163 166//163 181//163 182//163
f 175//164 174//164 189//164 190//164
f 168//165 167//165 182//165 183//165
f 176//166 175//166 190//166 191//166
f 169//167 168//167 183//167 184//167
f 177//168 176//168 191//168 192//168
f 189//169 188//169 203//169 204//169
f 182//170 181//170 196//170 197//170
f 190//171 189//171 204//171 205//171
f 183//172 182//172 197//172 198//172
f 191//173 190//173 205//173 206//173
f 184//174 183//174 198//174 199//174
f 192//175 191//175 206//175 207//175
f 185//176 184//176 199//176 200//176
f 193//177 192//177 207//177 208//177
f 186//178 185//178 200//178 201//178
f 194//179 193//179 208//179 209//179
f 187//180 186//180 201//180 202//180
f 195//181 194//181 209//181 210//181
f 188//182 187//182 202//182 203//182
f 208//183 207//183 223//183 224//183
f 201//184 200//184 216//184 217//184
f 209//185 208//185 224//185 225//185
f 202//186 201//186 217//186 218//186
f 210//187 209//187 225//187 226//187
f 203//188 202//188 218//188 219//188
f 204//189 203//189 219//189 220//189
f 197//190 196//190 212//190 213//190
f 205//191 204//191 220//191 221//191
f 198//192 197//192 213//192 214//192
f 206//193 205//193 221//193 222//193
f 199//194 198//194 214//194 215//194
f 207//195 206//195 222//195 223//195
f 200//196 199//196 215//196 216//196
f 221//197 220//197 236//197 237//197
f 214//198 213//198 229//198 230//198
f 222//199 221//199 237//199 238//199
f 215//200 214//200 230//200 231//200
f 223//201 222//201 238//201 239//201
f 216//202 215//202 231//202 232//202
f 224//203 223//203 239//203 240//203
f 217//204 216//204 232//204 233//204
f 225//205 224//205 240//205 241//205
f 218//206 217//206 233//206 234//206
f 226//207 225//207 241//207 242//207
f 219//208 218//208 234//208 235//208
f 220//209 219//209 235//209 236//209
f 213//210 212//210 228//210 229//210
f 1//211 211//211 16//211
f 227//212 15//212 30//212
f 16//213 211//213 31//213
f 227//214 30//214 45//214
f 31//215 211//215 46//215
f 227//216 45//216 60//216
f 46//217 211//217 61//217
f 227//218 60//218 75//218
f 61//219 211//219 76//219
f 227//220 75//220 90//220
f 76//221 211//221 91//221
f 227//222 90//222 105//222
f 91//223 211//223 106//223
f 227//224 105//224 120//224
f 106//225 211//225 121//225
f 227//226 120//226 135//226
f 121//227 211//227 136//227
f 227//228 135//228 150//228
f 136//229 211//229 151//229
f 227//230 150//230 165//230
f 151//231 211//231 166//231
f 227//232 165//232 180//232
f 166//233 211//233 181//233
f 227//234 180//234 195//234
f 181//235 211//235 196//235
f 227//236 195//236 210//236
f 196//237 211//237 212//237
f 227//238 210//238 226//238
f 212//239 211//239 228//239
f 227//240 226//240 242//240
f 241//241 240//241 13//241 14//241
f 234//242 233//242 6//242 7//242
f 242//243 241//243 14//243 15//243
f 235//244 234//244 7//244 8//244
f 228//245 211//245 1//245
f 227//246 242//246 15//246
f 236//247 235//247 8//247 9//247
f 229//248 228//248 1//248 2//248
f 237//249 236//249 9//249 10//249
f 230//250 229//250 2//250 3//250
f 238//251 237//251 10//251 11//251
f 231//252 230//252 3//252 4//252
f 239//253 238//253 11//253 12//253
f 232//254 231//254 4//254 5//254
f 240//255 239//255 12//255 13//255
f 233//256 232//256 5//256 6//256
